# xmcd CD database file
#
# Track frame offsets:
#	150
#	22902
#	45587
#	73462
#	99602
#	123600
#	137820
#	148445
#	174360
#	200567
#	215917
#	235307
#	264872
#
# Disc length: 3737 seconds
#
# Revision: 0
# Processed by: cddbd v1.5.1PL0 Copyright (c) Steve Scherf et al.
# Submitted via: CDex 1.51
#
DISCID=cf0e970d
DTITLE=Al Grey - The New Al Grey Quintet
DYEAR=1900
DGENRE=Jazz
TTITLE0=Bluish Grey
TTITLE1=Sonny's Tune
TTITLE2=Don't Blame Me
TTITLE3=Syrup And Bisquits
TTITLE4=Taint No Use
TTITLE5=Al's Rose
TTITLE6=Night And Day
TTITLE7=Call It Whatchawanna
TTITLE8=Underdog
TTITLE9=Stompin' At The Savoy
TTITLE10=Al's Blues
TTITLE11=Rue Prevail
TTITLE12=Soap Gets In Your Eyes
EXTD=
EXTT0=
EXTT1=
EXTT2=
EXTT3=
EXTT4=
EXTT5=
EXTT6=
EXTT7=
EXTT8=
EXTT9=
EXTT10=
EXTT11=
EXTT12=
PLAYORDER=
